<svg xmlns="http://www.w3.org/2000/svg" version="1.0" width="30" height="30" viewBox="0 0 236.000000 236.000000" preserveAspectRatio="xMidYMid meet" style="padding: 0;">
<metadata>

</metadata>
<g transform="translate(0.000000,236.000000) scale(0.100000,-0.100000)" fill="currentColor" stroke="none">
<path d="M174 2336 c-65 -30 -120 -85 -150 -150 l-24 -51 0 -955 0 -955 24 -51 c30 -65 85 -120 150 -150 l51 -24 955 0 955 0 51 24 c65 30 120 85 150 150 l24 51 0 955 0 955 -24 51 c-30 65 -85 120 -150 150 l-51 24 -955 0 -955 0 -51 -24z m1929 -124 c59 -30 103 -82 122 -146 23 -77 22 -1698 -1 -1775 -21 -72 -83 -134 -155 -155 -77 -23 -1698 -24 -1775 -1 -64 19 -116 63 -146 122 l-23 48 -3 845 c-2 572 1 861 8 895 19 90 90 163 175 184 24 5 384 9 895 8 l855 -2 48 -23z"/>
<path d="M331 1375 c-50 -16 -103 -63 -126 -111 -20 -42 -19 -136 1 -177 43 -84 107 -121 204 -115 76 4 121 28 158 84 l22 34 603 0 602 0 20 -31 c33 -51 98 -83 169 -83 125 1 206 83 206 209 0 84 -39 148 -112 186 -44 23 -134 25 -181 6 -32 -14 -107 -88 -107 -107 0 -7 -208 -10 -599 -10 l-599 0 -22 35 c-44 71 -153 108 -239 80z"/>
</g>
</svg>